<svg width="14" height="8" viewBox="0 0 14 8" fill="none" xmlns="http://www.w3.org/2000/svg">
<path fill-rule="evenodd" clip-rule="evenodd" d="M1.83478 0.854019C1.63952 0.658757 1.32293 0.658757 1.12767 0.854019C0.932409 1.04928 0.932409 1.36586 1.12767 1.56113L6.76181 7.19527C6.76867 7.20303 6.77582 7.21063 6.78324 7.21805C6.8882 7.32301 7.02821 7.37155 7.16559 7.36367C7.28423 7.35717 7.401 7.30861 7.49163 7.21798C7.49863 7.21098 7.50538 7.20382 7.51188 7.19652L13.1472 1.5612C13.3425 1.36594 13.3425 1.04936 13.1472 0.854094C12.9519 0.658832 12.6354 0.658832 12.4401 0.854094L7.13747 6.15671L1.83478 0.854019Z" fill="#101820"/>
</svg>
