<svg width="8" height="13" viewBox="0 0 8 13" fill="none" xmlns="http://www.w3.org/2000/svg">
<path fill-rule="evenodd" clip-rule="evenodd" d="M0.782486 11.5109C0.587223 11.7062 0.587223 12.0228 0.782486 12.218C0.977748 12.4133 1.29433 12.4133 1.48959 12.218L7.12374 6.58389C7.1315 6.57703 7.1391 6.56989 7.14652 6.56246C7.25148 6.4575 7.30002 6.31749 7.29214 6.18011C7.28564 6.06147 7.23708 5.9447 7.14645 5.85407C7.13945 5.84707 7.13229 5.84032 7.12499 5.83382L1.48967 0.198501C1.29441 0.00323942 0.977823 0.00323942 0.782561 0.198501C0.587299 0.393763 0.587299 0.710346 0.782561 0.905608L6.08518 6.20823L0.782486 11.5109Z" fill="#101820"/>
</svg>
